<?xml version="1.0" encoding="utf-8"?>
<!-- Generator: Fusion 360, Shaper Origin Export Add-In, Version 1.5.0  -->
<svg enable-background="new 0 0 20.4 3.6" height="3.6cm" shaper:fusionaddin="version:1.5.0" version="1.1" viewBox="0 0 20.4 3.6" width="20.4cm" x="0cm" xml:space="preserve" xmlns="http://www.w3.org/2000/svg" xmlns:shaper="http://www.shapertools.com/namespaces/shaper" xmlns:xlink="http://www.w3.org/1999/xlink" y="0cm"><path d="M17.2444444,3.6 L17.2444444,3 15.0888889,3 15.0888889,3.6 12.9333333,3.6 12.9333333,3 10.7777778,3 10.7777778,3.6 8.6222222,3.6 8.6222222,3 6.4666667,3 6.4666667,3.6 4.3111111,3.6 4.3111111,3 2.1555556,3 2.1555556,3.6 0,3.6 0,0 20.4,0 20.4,2 A1,1 0 0,1 19.4,3 L19.4,3.6 17.2444444,3.6z" fill="rgb(0,0,0)" shaper:cutDepth="0" shaper:pathType="exterior" transform="matrix(1,0,0,-1,0,3.6)" vector-effect="non-scaling-stroke" /><path d="M19.1,2.1 a0.2,0.2 0 1,1 0.4,0 a0.2,0.2 0 1,1 -0.4,0z" fill="rgb(255,255,255)" shaper:cutDepth="0" shaper:pathType="interior" stroke="rgb(0,0,0)" transform="matrix(1,0,0,-1,0,3.6)" vector-effect="non-scaling-stroke" /></svg>