<?xml version="1.0" encoding="utf-8"?>
<!-- Generator: Fusion 360, Shaper Origin Export Add-In, Version 1.5.0  -->
<svg enable-background="new 0 0 8.8 18" height="18cm" shaper:fusionaddin="version:1.5.0" version="1.1" viewBox="0 0 8.8 18" width="8.8cm" x="0cm" xml:space="preserve" xmlns="http://www.w3.org/2000/svg" xmlns:shaper="http://www.shapertools.com/namespaces/shaper" xmlns:xlink="http://www.w3.org/1999/xlink" y="0cm"><path d="M-0,2.5714286 L0,-0 7.6,0 7.6,2.5714286 8.2,2.5714286 8.2,5.1428571 7.6,5.1428571 7.6,7.7142857 8.2,7.7142857 8.2,10.2857143 7.6,10.2857143 7.6,12.8571429 8.2,12.8571429 8.2,15.4285714 7.6,15.4285714 7.6,18 -0,18 -0,15.4285714 -0.6,15.4285714 -0.6,12.8571429 -0,12.8571429 -0,10.2857143 -0.6,10.2857143 -0.6,7.7142857 -0,7.7142857 -0,5.1428571 -0.6,5.1428571 -0.6,2.5714286 -0,2.5714286z" fill="rgb(0,0,0)" shaper:cutDepth="0" shaper:pathType="exterior" transform="matrix(1,0,0,-1,0.6,18)" vector-effect="non-scaling-stroke" /><path d="M1.0813827,15.9752724 L3.2930932,14.4266161 2.9489474,13.9351248 0.7372368,15.4837812 1.0813827,15.9752724z" fill="rgb(255,255,255)" shaper:cutDepth="0" shaper:pathType="interior" stroke="rgb(0,0,0)" transform="matrix(1,0,0,-1,0.6,18)" vector-effect="non-scaling-stroke" /><path d="M4.3069068,9.4266161 L6.5186173,10.9752724 6.8627632,10.4837812 4.6510526,8.9351248 4.3069068,9.4266161z" fill="rgb(255,255,255)" shaper:cutDepth="0" shaper:pathType="interior" stroke="rgb(0,0,0)" transform="matrix(1,0,0,-1,0.6,18)" vector-effect="non-scaling-stroke" /></svg>