<?xml version="1.0" encoding="utf-8"?>
<!-- Generator: Fusion 360, Shaper Origin Export Add-In, Version 1.5.0  -->
<svg enable-background="new 0 0 18 6" height="6cm" shaper:fusionaddin="version:1.5.0" version="1.1" viewBox="0 0 18 6" width="18cm" x="0cm" xml:space="preserve" xmlns="http://www.w3.org/2000/svg" xmlns:shaper="http://www.shapertools.com/namespaces/shaper" xmlns:xlink="http://www.w3.org/1999/xlink" y="0cm"><path d="M9.1666667,0 L9.1666667,0.6 12.8333333,0.6 12.8333333,0 16.5,0 16.5,6 13.9285714,6 13.9285714,5.4 11.3571429,5.4 11.3571429,6 8.7857143,6 8.7857143,5.4 6.2142857,5.4 6.2142857,6 3.6428571,6 3.6428571,5.4 1.0714286,5.4 1.0714286,6 -1.5,6 -1.5,1 -0.9,1 -0.9,0.9 A0.9,0.9 180 0,1 -0,-0 L9.1666667,0z" fill="rgb(0,0,0)" shaper:cutDepth="0" shaper:pathType="exterior" transform="matrix(1,0,0,-1,1.5,6)" vector-effect="non-scaling-stroke" /><path d="M-0.2,0.9 a0.2,0.2 0 1,1 0.4,0 a0.2,0.2 0 1,1 -0.4,0z" fill="rgb(255,255,255)" shaper:cutDepth="0" shaper:pathType="interior" stroke="rgb(0,0,0)" transform="matrix(1,0,0,-1,1.5,6)" vector-effect="non-scaling-stroke" /><path d="M3.8365352,4.1477415 L1.5867786,1.4665859 1.1271519,1.8522585 3.3769086,4.5334141 3.8365352,4.1477415z" fill="rgb(255,255,255)" shaper:cutDepth="0" shaper:pathType="interior" stroke="rgb(0,0,0)" transform="matrix(1,0,0,-1,1.5,6)" vector-effect="non-scaling-stroke" /></svg>