<?xml version="1.0" encoding="UTF-8" standalone="no"?>
<!DOCTYPE svg PUBLIC "-//W3C//DTD SVG 1.1//EN" "http://www.w3.org/Graphics/SVG/1.1/DTD/svg11.dtd">
<svg width="100%" height="100%" viewBox="0 0 250 312" version="1.1" xmlns="http://www.w3.org/2000/svg" xmlns:xlink="http://www.w3.org/1999/xlink" xml:space="preserve" xmlns:serif="http://www.serif.com/" style="fill-rule:evenodd;clip-rule:evenodd;stroke-linejoin:round;stroke-miterlimit:2;">
    <g transform="matrix(1,0,0,-1,17.0079,311.811)">
        <path d="M232.441,207.874L215.433,207.874L215.433,311.811L0,311.811L0,207.874L-17.008,207.874L-17.008,103.937L0,103.937L0,-0L215.433,-0L215.433,103.937L232.441,103.937L232.441,207.874Z" style="fill:white;fill-rule:nonzero;stroke:black;stroke-width:0.6px;"/>
    </g>
    <g transform="matrix(1,0,0,-1,17.0079,311.811)">
        <path d="M122.086,210.518L184.78,254.417L194.535,240.485L131.841,196.586L122.086,210.518Z" style="fill:white;fill-rule:nonzero;stroke:black;stroke-width:1px;stroke-linejoin:miter;stroke-miterlimit:4;"/>
    </g>
    <g transform="matrix(1,0,0,-1,17.0079,311.811)">
        <path d="M30.653,112.685L93.348,68.786L83.592,54.854L20.898,98.753L30.653,112.685Z" style="fill:white;fill-rule:nonzero;stroke:black;stroke-width:1px;stroke-linejoin:miter;stroke-miterlimit:4;"/>
    </g>
    <g transform="matrix(4.36996,0,0,4.36996,-138.342,-92.9672)">
        <path d="M37.47,27.327L38.079,27.374L39.087,27.374C39.11,27.405 39.185,27.421 39.31,27.421C39.653,27.514 39.936,27.561 40.159,27.561L40.288,27.561C40.425,27.655 40.632,27.755 40.909,27.86L40.974,27.971C40.935,28.061 40.825,28.136 40.645,28.194L40.399,28.194C40.399,28.163 40.247,28.132 39.942,28.1L39.175,28.141L39.128,28.194L38.946,28.194C38.899,28.151 38.819,28.128 38.706,28.124C38.593,28.128 38.513,28.151 38.466,28.194L37.569,28.194L37.335,28.382C37.214,28.382 37.056,28.249 36.86,27.983L36.86,27.544C36.935,27.399 37.138,27.327 37.47,27.327ZM38.735,28.264L38.946,28.264C39.239,28.593 39.433,28.757 39.526,28.757L39.755,28.985L39.755,29.19C39.755,29.253 39.657,29.313 39.462,29.372L39.45,29.407L39.474,29.682L39.45,30.52L39.403,30.567L39.403,30.977C39.31,31.188 39.263,31.35 39.263,31.464L39.263,31.792C39.2,31.987 39.142,32.085 39.087,32.085L39.022,32.132C38.819,32.132 38.685,31.839 38.618,31.253L38.618,30.468C38.556,30.378 38.524,30.186 38.524,29.893L38.524,29.882L38.477,29.811L38.477,29.718L38.524,29.647L38.524,29.624C38.477,29.624 38.454,29.595 38.454,29.536L38.413,29.53L37.675,29.553C37.577,29.553 37.493,29.497 37.423,29.384L37.423,29.278C37.474,29.188 37.602,29.077 37.81,28.944L38.12,28.944C38.272,28.944 38.423,28.88 38.571,28.751L38.519,28.528C38.569,28.387 38.642,28.3 38.735,28.264Z" style="fill:rgb(129,129,129);fill-rule:nonzero;stroke:black;stroke-width:0.23px;"/>
        <path d="M44.378,34.757C44.202,34.639 44.114,34.489 44.114,34.305L44.114,28.751L44.144,27.872C44.179,27.872 44.202,27.802 44.214,27.661C44.257,27.661 44.296,27.602 44.331,27.485C44.436,27.399 44.489,27.329 44.489,27.274C44.489,27.223 44.485,27.196 44.477,27.192L44.231,27.216L44.185,27.216C44.02,27.321 43.851,27.399 43.675,27.45L43.335,27.45C43.276,27.45 43.165,27.512 43.001,27.637C42.935,27.637 42.849,27.684 42.743,27.778C42.661,27.778 42.427,27.983 42.04,28.393C42.04,28.456 41.985,28.565 41.876,28.721L41.852,28.827L41.852,29.137L42.046,29.348C42.077,29.348 42.147,29.419 42.257,29.559C42.487,29.735 42.602,29.886 42.602,30.011L42.409,30.169L42.251,30.169C42.001,30.012 41.796,29.845 41.636,29.665L41.395,29.284L41.255,28.821C41.286,28.634 41.325,28.518 41.372,28.475L41.372,28.423C41.372,28.247 41.435,28.057 41.56,27.854C41.56,27.757 41.63,27.651 41.77,27.538C41.77,27.456 41.919,27.302 42.216,27.075C42.403,26.919 42.624,26.813 42.878,26.759C42.925,26.704 43.056,26.643 43.27,26.577C43.341,26.471 43.487,26.419 43.71,26.419L44.882,26.419C45.038,26.419 45.145,26.522 45.204,26.729L45.204,26.911L45.157,26.981L45.157,27.954C45.157,28.13 45.095,28.268 44.97,28.37L44.97,28.68L44.946,28.891C44.946,28.911 45.017,28.983 45.157,29.108L45.157,29.477C45.157,29.598 45.087,29.72 44.946,29.841L44.97,29.841L44.97,31.305C44.97,31.794 44.921,32.171 44.823,32.436C44.792,32.452 44.77,32.565 44.759,32.776L44.782,32.923L44.759,33.579L44.759,33.837C44.759,34.04 44.632,34.346 44.378,34.757Z" style="fill:rgb(129,129,129);fill-rule:nonzero;stroke:black;stroke-width:0.23px;"/>
        <path d="M46.845,27.942L47.067,27.942L47.349,28.083L49.194,28.083L50.102,28.106L50.548,28.475L50.548,28.598C50.454,28.786 50.339,28.88 50.202,28.88L49.024,28.88L49.024,30.134C49.024,30.544 49.087,30.932 49.212,31.3L49.212,32.184C49.087,32.43 49.024,32.606 49.024,32.712L49.024,34.528L48.972,34.622L48.837,35.641L48.837,36.093C48.77,36.253 48.649,36.333 48.474,36.333L48.474,36.309C48.419,36.309 48.372,36.151 48.333,35.835C48.239,35.643 48.192,35.477 48.192,35.337L48.192,35.161L48.145,35.091L48.145,33.098L48.192,33.028L48.192,31.27L48.145,31.2L48.145,29.987C48.27,29.686 48.333,29.423 48.333,29.196L48.333,29.114L48.38,29.044L48.38,28.95L48.327,28.88L48.122,28.88C47.817,28.899 47.665,28.942 47.665,29.009L47.665,29.184C47.727,29.251 47.759,29.427 47.759,29.712L47.759,30.028L47.806,30.098L47.806,30.216L47.759,30.286L47.759,30.35L47.712,30.901C47.743,31.108 47.774,31.231 47.806,31.27L47.806,32.132C47.681,32.413 47.618,32.925 47.618,33.667L47.571,33.714L47.571,34.188C47.571,34.399 47.479,34.505 47.296,34.505L47.179,34.505C47.058,34.505 46.989,34.376 46.974,34.118L46.997,32.899C46.997,32.673 46.942,32.473 46.833,32.302L46.81,32.173L46.81,30.796L46.78,30.696L46.81,30.596L46.81,30.075C46.935,29.911 46.997,29.805 46.997,29.759L46.997,29.149C46.997,29.083 46.917,29.04 46.757,29.02L46.733,28.997L46.651,28.997L46.587,29.044L46.054,29.067C45.811,28.927 45.626,28.737 45.497,28.499L45.497,28.305C45.497,28.157 45.683,28.083 46.054,28.083L46.563,28.083L46.845,27.942Z" style="fill:rgb(129,129,129);fill-rule:nonzero;stroke:black;stroke-width:0.23px;"/>
        <path d="M51.69,29.108C51.94,29.163 52.065,29.266 52.065,29.419C52.093,29.454 52.114,29.52 52.13,29.618C52.337,29.653 52.44,29.712 52.44,29.794C52.55,29.911 52.604,30.009 52.604,30.087L52.604,30.11C52.526,30.352 52.487,30.712 52.487,31.188L52.487,34.382C52.362,34.655 52.3,34.848 52.3,34.962L52.3,35.419L52.253,35.489L52.253,35.712C52.253,35.856 52.171,36.102 52.007,36.45L51.837,36.52L51.696,36.52L51.503,36.327C51.573,36.206 51.608,36.102 51.608,36.016L51.608,35.876C51.608,34.794 51.595,33.93 51.567,33.286C51.501,33.286 51.468,32.882 51.468,32.073L51.421,32.026L51.421,31.645L51.468,31.575L51.468,31.376L51.515,30.948C51.499,30.35 51.468,30.052 51.421,30.052L51.421,29.372C51.491,29.227 51.581,29.139 51.69,29.108ZM53.835,30.403C53.843,30.423 53.847,30.442 53.847,30.462L53.847,30.655L53.729,31.147L53.729,31.235C53.729,31.278 53.753,31.329 53.8,31.387L53.8,32.014C53.769,32.057 53.729,32.218 53.683,32.495L53.659,32.518L53.659,33.86L53.612,34.792L53.565,34.839L53.565,34.845C53.565,35.38 53.534,35.68 53.472,35.747L53.472,35.899C53.472,36.372 53.427,36.696 53.337,36.872C53.286,36.899 53.261,37.075 53.261,37.399L53.261,37.563C53.261,37.653 53.204,37.743 53.091,37.833L52.979,37.833C52.847,37.755 52.78,37.649 52.78,37.516L52.827,36.046L52.874,35.999L52.874,35.091L52.827,35.02L52.804,34.305L52.921,33.555C52.921,33.427 52.882,33.161 52.804,32.759L52.804,32.641L52.786,32.067C52.739,32.067 52.706,31.868 52.686,31.47L52.686,31.188C52.686,30.962 52.718,30.788 52.78,30.667L52.804,30.339L52.804,29.8L52.921,29.495C52.921,29.405 52.567,29.028 51.86,28.364C51.411,27.942 51.186,27.645 51.186,27.473C51.12,27.473 51.052,27.315 50.981,26.999C50.884,26.94 50.835,26.86 50.835,26.759L50.835,26.647L51.005,26.512L51.181,26.512C51.282,26.618 51.435,26.718 51.638,26.811L52.136,27.303C52.136,27.327 52.175,27.354 52.253,27.386C52.253,27.425 52.339,27.52 52.511,27.673C52.511,27.68 52.522,27.684 52.546,27.684C52.71,27.903 52.981,28.2 53.36,28.575L53.636,28.827C53.636,28.979 53.698,29.104 53.823,29.202C53.823,29.257 54.075,29.534 54.579,30.034L54.638,30.087C54.759,30.317 54.882,30.477 55.007,30.567L55.136,30.755L55.136,30.942L54.931,31.177L54.679,31.177C54.538,31.052 54.409,30.989 54.292,30.989C54.026,30.614 53.88,30.423 53.852,30.415C53.845,30.411 53.839,30.407 53.835,30.403Z" style="fill:rgb(129,129,129);fill-rule:nonzero;stroke:black;stroke-width:0.23px;"/>
        <path d="M56.249,30.35L57.099,30.35C57.638,30.378 57.907,30.409 57.907,30.444L58.019,30.444L58.089,30.397L58.288,30.397L58.593,30.538L59.272,30.538C59.479,30.538 59.612,30.684 59.671,30.977C59.604,31.091 59.509,31.147 59.384,31.147L58.757,31.124L58.71,31.077L57.854,31.077L57.784,31.124C57.257,31.124 56.993,31.163 56.993,31.241L56.788,31.241C56.714,31.241 56.647,31.218 56.589,31.171L56.542,31.171C56.374,31.28 56.229,31.335 56.108,31.335L55.997,31.335C55.669,31.038 55.497,30.839 55.481,30.737C55.481,30.628 55.587,30.555 55.798,30.52C55.911,30.407 56.061,30.35 56.249,30.35ZM57.708,28.827L57.708,28.792C57.708,28.784 57.616,28.727 57.433,28.622C57.249,28.473 57.079,28.272 56.923,28.018C56.72,27.803 56.577,27.616 56.495,27.456L56.267,27.134C56.212,27.091 56.185,27.011 56.185,26.893C56.028,26.78 55.95,26.651 55.95,26.507C55.856,26.507 55.802,26.346 55.786,26.026L55.786,25.968C55.552,25.651 55.435,25.46 55.435,25.393L55.435,25.305L55.546,25.194L55.727,25.194C55.962,25.374 56.079,25.524 56.079,25.645C56.181,25.696 56.257,25.782 56.308,25.903C56.421,25.997 56.477,26.073 56.477,26.132C56.489,26.132 56.61,26.288 56.841,26.6C56.864,26.6 56.977,26.718 57.181,26.952C57.485,27.151 57.686,27.346 57.784,27.538C57.851,27.538 57.884,27.569 57.884,27.632C57.903,27.632 57.985,27.72 58.13,27.895L58.235,28.001C58.235,28.024 58.265,28.048 58.323,28.071L58.692,28.434C58.79,28.552 58.872,28.61 58.938,28.61C58.938,28.692 59.085,28.833 59.378,29.032C59.487,29.11 59.638,29.173 59.829,29.22C59.829,29.243 59.86,29.257 59.923,29.261L59.923,29.454C59.79,29.786 59.612,29.952 59.39,29.952L59.272,29.952C59.147,29.952 59.022,29.889 58.897,29.764C58.815,29.764 58.745,29.712 58.686,29.606L58.569,29.571L58.411,29.495C58.411,29.444 58.335,29.382 58.183,29.307C58.104,29.35 58.009,29.43 57.895,29.548C57.856,29.552 57.837,29.585 57.837,29.647C57.79,29.647 57.767,29.665 57.767,29.7C57.626,29.731 57.468,29.815 57.292,29.952C57.253,29.952 57.194,30.007 57.116,30.116L56.747,30.327L56.624,30.327C56.487,30.327 56.395,30.255 56.349,30.11C56.349,29.911 56.425,29.784 56.577,29.729C56.706,29.546 56.77,29.407 56.77,29.313C56.892,29.231 57.017,29.091 57.145,28.891L57.421,28.78L57.538,28.78C57.601,28.78 57.657,28.796 57.708,28.827Z" style="fill:rgb(129,129,129);fill-rule:nonzero;stroke:black;stroke-width:0.23px;"/>
        <path d="M63.45,29.448L63.585,29.448C63.815,29.448 63.931,29.593 63.931,29.882L63.931,30.438C63.79,30.567 63.72,30.733 63.72,30.936L63.497,31.083C63.306,30.993 63.196,30.901 63.169,30.807C63.106,30.643 63.075,30.507 63.075,30.397L63.075,29.811C63.075,29.655 63.2,29.534 63.45,29.448ZM62.46,29.237L62.196,29.237L62.185,29.249C62.27,29.346 62.345,29.477 62.407,29.641L62.407,29.794C62.372,29.884 62.304,29.964 62.202,30.034L62.155,30.081L62.173,30.081L62.173,30.151L62.249,30.268L62.22,30.491L62.22,30.532C62.321,30.716 62.423,30.86 62.524,30.966C62.524,31.13 62.782,31.296 63.298,31.464L63.767,31.44L63.872,31.44C64.161,31.604 64.306,31.772 64.306,31.944L64.306,31.973L64.235,32.231C64.142,33.059 64.095,33.6 64.095,33.854C64.056,33.854 64.001,34.001 63.931,34.294L63.931,34.71C63.931,34.839 63.819,34.94 63.597,35.014L63.38,34.874L63.403,33.749L63.263,32.788L63.263,32.729L63.216,32.659L63.216,32.589L63.263,32.518L63.263,32.395L63.227,32.378L62.999,32.378L62.231,32.067C62.231,32.028 62.153,31.979 61.997,31.921L61.716,31.581C61.716,31.475 61.645,31.309 61.505,31.083L61.505,29.29L61.452,29.237L61.329,29.237L61.048,29.19L60.649,29.22C60.427,29.063 60.282,28.895 60.216,28.716L60.216,28.628C60.251,28.561 60.351,28.483 60.515,28.393C60.597,28.3 60.706,28.253 60.843,28.253L61.405,28.253C61.722,28.253 62.026,28.315 62.319,28.44L62.378,28.44L63.011,28.323L63.321,28.323L63.421,28.264L63.731,28.417L63.767,28.417L64.048,28.276L64.177,28.276C64.392,28.386 64.511,28.44 64.534,28.44L64.675,28.341L64.769,28.276L64.968,28.276L65.126,28.434L65.126,28.622C65.067,28.782 64.983,28.862 64.874,28.862C64.862,28.917 64.712,28.993 64.423,29.091L64.224,29.19L64.019,29.19L63.948,29.143L63.597,29.143L63.526,29.19L62.571,29.214L62.46,29.237Z" style="fill:rgb(129,129,129);fill-rule:nonzero;stroke:black;stroke-width:0.23px;"/>
        <path d="M67.177,36.432C67.177,36.163 67.276,36.028 67.476,36.028C67.796,36.028 68.015,35.95 68.132,35.794L68.501,35.583C68.61,35.583 68.747,35.489 68.911,35.302C68.911,35.262 68.989,35.145 69.145,34.95C69.145,34.88 69.208,34.747 69.333,34.552L69.38,33.579L69.333,32.436C69.208,32.19 69.145,32.032 69.145,31.962L69.145,31.645C69.02,31.481 68.958,31.352 68.958,31.259C68.958,31.165 68.895,31.053 68.77,30.925C68.77,30.843 68.708,30.708 68.583,30.52C68.583,30.454 68.52,30.321 68.395,30.122C68.345,29.903 68.286,29.768 68.22,29.718C68.165,29.6 68.138,29.473 68.138,29.337L68.138,28.985C68.138,28.946 68.05,28.927 67.874,28.927L67.757,28.927C67.718,28.927 67.692,28.94 67.681,28.968L67.681,29.091L67.751,29.184L67.751,29.753L67.845,30.175L67.845,30.298L67.634,30.977C67.634,31.059 67.583,31.188 67.481,31.364L67.493,31.376L67.493,31.446C67.493,31.77 67.419,31.97 67.27,32.044C67.083,32.044 66.989,31.954 66.989,31.774L66.989,31.247L66.942,31.177L66.942,30.848L66.989,30.778L66.989,30.497L66.942,30.427L66.942,29.559L66.989,29.489L66.989,29.407L67.007,28.968L66.977,28.95L66.614,28.95L66.216,29.184L66.099,29.184C65.935,29.134 65.8,29.055 65.694,28.95C65.569,28.95 65.485,28.88 65.442,28.739L65.419,28.587C65.419,28.423 65.575,28.341 65.888,28.341C65.888,28.325 66.003,28.261 66.233,28.147L66.567,28.177L68.272,28.153L70.405,28.153C70.62,28.153 70.765,28.208 70.839,28.317C70.972,28.317 71.075,28.382 71.149,28.511L71.149,28.587C71.149,28.739 71.024,28.86 70.774,28.95C70.774,28.989 70.735,29.016 70.657,29.032C70.657,29.102 70.581,29.137 70.429,29.137L70.382,29.137C70.245,29.137 69.981,29.091 69.591,28.997L69.198,28.997L69.128,28.95L69.063,28.95C69.063,28.997 69.06,29.02 69.052,29.02C69.138,29.122 69.194,29.239 69.222,29.372C69.339,29.423 69.409,29.614 69.433,29.946C69.526,30.009 69.599,30.194 69.649,30.503L69.808,30.901C69.936,30.983 70.001,31.095 70.001,31.235L70.001,31.587C70.001,31.802 70.056,31.985 70.165,32.137C70.165,32.216 70.235,32.382 70.376,32.636L70.376,33.579C70.376,33.704 70.313,33.878 70.188,34.1C70.188,34.386 70.132,34.557 70.019,34.616C69.972,34.843 69.905,34.966 69.819,34.985C69.683,35.259 69.538,35.475 69.386,35.636L69.356,35.747C69.29,35.747 69.2,35.817 69.087,35.958L68.7,36.169C68.642,36.169 68.534,36.231 68.378,36.356C68.269,36.356 68.128,36.413 67.956,36.526L67.833,36.591L67.37,36.591L67.177,36.432Z" style="fill:rgb(129,129,129);fill-rule:nonzero;stroke:black;stroke-width:0.23px;"/>
    </g>
    <g transform="matrix(3.40654,0,0,3.40654,-92.0824,9.46372)">
        <path d="M41.847,37.171C41.702,37.093 41.606,36.997 41.56,36.884L41.583,35.636L41.536,34.065L41.56,33.503L41.56,33.409L41.542,32.764C41.507,32.764 41.468,32.577 41.425,32.202L41.401,32.202L41.372,31.44L41.372,29.87C41.372,29.721 41.435,29.553 41.56,29.366L41.56,29.114L41.507,29.061L41.401,29.061L41.331,29.108L40.933,29.108L40.886,29.079C40.866,29.087 40.847,29.114 40.827,29.161L40.868,29.225L40.868,29.378L40.892,29.917L40.868,30.397C40.837,30.397 40.821,30.428 40.821,30.491C40.727,30.608 40.681,30.698 40.681,30.761L40.681,31.417L40.727,31.815L40.704,32.12C40.712,32.202 40.735,32.266 40.774,32.313L40.774,32.436C40.712,32.522 40.681,32.636 40.681,32.776L40.681,33.655L40.634,33.749C40.634,33.936 40.563,34.325 40.423,34.915L40.423,35.196L40.27,35.272C40.126,35.272 40.032,35.177 39.989,34.985L39.966,34.774L39.989,34.3L39.989,32.261C39.989,32.112 39.95,31.96 39.872,31.803L39.802,31.563L39.802,29.565C39.837,29.538 39.86,29.427 39.872,29.231C39.923,29.223 39.96,29.186 39.983,29.12L39.972,29.055L39.491,29.038L39.122,29.055L39.11,29.126L39.11,29.161C39.188,29.387 39.227,29.69 39.227,30.069C39.27,30.069 39.3,30.35 39.315,30.913C39.351,30.913 39.39,31.03 39.433,31.264L39.456,31.264L39.485,32.026L39.485,32.612C39.485,32.905 39.423,33.143 39.298,33.327C39.298,33.682 39.274,33.88 39.227,33.919L39.175,35.553C39.116,35.553 39.087,35.905 39.087,36.608L39.04,36.678L39.04,37.393C39.04,37.745 38.981,38.102 38.864,38.466L38.606,38.548C38.497,38.391 38.442,38.124 38.442,37.745L38.442,33.889L38.395,33.819L38.395,33.573L38.349,32.723L38.302,32.677L38.302,32.413L38.349,32.343L38.349,31.821C38.286,31.704 38.255,31.475 38.255,31.136L38.255,30.784L38.308,29.507C38.335,29.507 38.349,29.454 38.349,29.348L38.372,29.249L38.442,29.137L38.442,29.079C38.399,28.989 38.302,28.944 38.149,28.944L38.05,28.968C37.64,28.936 37.435,28.905 37.435,28.874L37.218,28.874C36.987,28.874 36.872,28.768 36.872,28.557C36.872,28.366 37.046,28.262 37.394,28.247C37.476,28.134 37.628,28.077 37.851,28.077L43.101,28.077C43.354,28.077 43.52,28.132 43.599,28.241C43.653,28.241 43.712,28.303 43.774,28.428L43.774,28.499C43.563,28.749 43.401,28.874 43.288,28.874L43.101,28.874C43.073,28.901 42.958,28.93 42.755,28.962L42.679,29.038L42.421,29.038C42.292,29.038 42.227,29.05 42.227,29.073L42.227,29.126C42.352,29.239 42.415,29.427 42.415,29.688L42.579,29.899L42.579,30.134C42.454,30.196 42.392,30.38 42.392,30.684C42.345,30.727 42.321,30.786 42.321,30.86L42.298,30.96L42.227,31.071L42.227,31.382C42.337,31.608 42.392,31.831 42.392,32.05C42.392,32.311 42.337,32.54 42.227,32.735L42.227,33.186C42.352,33.382 42.415,33.675 42.415,34.065C42.415,34.71 42.352,35.141 42.227,35.36L42.227,36.104C42.227,36.261 42.196,36.45 42.134,36.673C42.134,36.766 42.038,36.932 41.847,37.171Z" style="fill:rgb(129,129,129);fill-rule:nonzero;stroke:black;stroke-width:0.29px;"/>
        <path d="M46.47,26.946L46.938,27.362C46.993,27.362 47.134,27.473 47.36,27.696C47.86,28.091 48.11,28.339 48.11,28.44C48.161,28.44 48.214,28.548 48.269,28.762L48.813,29.331C48.907,29.393 49.007,29.503 49.112,29.659C49.159,29.659 49.222,29.729 49.3,29.87L49.341,29.87L49.657,30.362L49.657,30.479L49.528,30.643L49.323,30.643C49.253,30.6 49.112,30.421 48.901,30.104C48.854,30.104 48.798,30.052 48.731,29.946C48.649,29.919 48.554,29.839 48.444,29.706C48.089,29.475 47.852,29.286 47.735,29.137C47.517,28.954 47.38,28.862 47.325,28.862L46.827,28.417C46.597,28.202 46.364,28.011 46.13,27.843C46.13,27.823 46.028,27.788 45.825,27.737L45.702,27.737L45.702,27.743C45.702,27.755 45.665,27.823 45.591,27.948C45.548,27.948 45.479,28.026 45.386,28.182C45.323,28.182 45.276,28.257 45.245,28.405C45.171,28.421 45.108,28.581 45.058,28.886C45.019,28.886 44.987,28.927 44.964,29.009L44.923,29.055L44.923,30.268C45.095,30.507 45.27,30.68 45.45,30.79C45.474,30.841 45.61,30.927 45.86,31.048C45.86,31.075 45.909,31.089 46.007,31.089L46.476,31.089C46.589,31.089 46.716,31.034 46.856,30.925L47.038,30.925L47.173,31.059L47.173,31.136C46.993,31.386 46.8,31.511 46.593,31.511L45.749,31.511C45.522,31.511 45.329,31.448 45.169,31.323C45.017,31.323 44.899,31.245 44.817,31.089C44.79,31.089 44.61,30.901 44.278,30.526C44.278,30.397 44.208,30.259 44.067,30.11L44.067,28.71C44.067,28.585 44.13,28.468 44.255,28.358L44.278,28.241L44.278,28.095L44.442,27.807C44.474,27.671 44.593,27.511 44.8,27.327C44.882,27.108 45.03,26.925 45.245,26.776L45.374,26.776C45.55,26.776 45.673,26.841 45.743,26.97C46.009,27.001 46.142,27.065 46.142,27.163L46.188,27.169L46.47,26.946ZM45.843,28.3L45.931,28.3L46.323,28.405C46.401,28.487 46.517,28.561 46.669,28.628C46.688,28.671 46.794,28.753 46.985,28.874C46.989,28.901 47.067,28.946 47.22,29.009C47.22,29.055 47.302,29.143 47.466,29.272C47.505,29.378 47.546,29.45 47.589,29.489C47.765,29.583 47.86,29.657 47.876,29.712L47.876,29.805L47.694,29.964C47.589,29.964 47.474,29.872 47.349,29.688L46.839,29.471C46.819,29.405 46.669,29.309 46.388,29.184L46.388,29.167L46.452,29.167C46.171,29.167 45.974,29.11 45.86,28.997L45.667,28.774L45.638,28.546C45.638,28.44 45.706,28.358 45.843,28.3Z" style="fill:rgb(129,129,129);fill-rule:nonzero;stroke:black;stroke-width:0.29px;"/>
        <path d="M52.974,29.436L52.974,29.102L52.95,29.055L52.938,29.055C52.938,29.102 52.915,29.126 52.868,29.126L52.868,29.225C52.911,29.296 52.946,29.366 52.974,29.436ZM53.056,29.759L53.056,30.098C53.056,30.348 53.024,30.509 52.962,30.579L52.962,30.784C53.024,30.843 53.056,30.95 53.056,31.106L53.056,31.458C53.056,32.114 52.993,32.516 52.868,32.665L52.868,33.614C52.868,33.845 52.806,34.067 52.681,34.282L52.634,34.927L52.681,35.302C52.681,35.458 52.581,35.579 52.382,35.665L52.194,35.665L52.03,35.471C52.144,35.218 52.208,35.02 52.224,34.88L52.2,34.481L52.2,33.333L52.183,32.524C52.147,32.524 52.13,32.481 52.13,32.395L52.083,31.598L52.083,31.223L52.2,30.473L52.2,29.249L52.218,29.167C52.198,29.093 52.185,29.055 52.177,29.055L52.106,29.055L52.095,29.114L52.194,29.395C52.089,29.887 51.999,30.134 51.925,30.134L51.884,30.356L51.884,30.462C51.599,30.852 51.394,31.048 51.269,31.048C51.183,31.173 51.083,31.235 50.97,31.235C50.97,31.266 50.837,31.282 50.571,31.282L50.442,31.118L50.442,30.989C50.442,30.868 50.583,30.796 50.864,30.772C50.864,30.749 50.938,30.665 51.087,30.52L51.239,30.257L51.239,30.069L51.356,29.53L51.356,29.395C51.356,29.091 51.308,28.915 51.21,28.868C50.417,28.868 50.02,28.805 50.02,28.68L50.243,28.68L49.95,28.458C49.95,28.364 50.126,28.284 50.477,28.218L50.495,28.2L50.741,28.095L51.38,28.095C51.407,28.13 51.544,28.153 51.79,28.165C51.79,28.231 51.995,28.27 52.405,28.282C52.706,28.282 53.044,28.22 53.419,28.095L53.694,28.095L53.858,28.165L54.509,28.141L54.649,28.141C55.009,28.231 55.188,28.337 55.188,28.458L55.212,28.575L55.212,28.622C55.212,28.802 55.087,28.891 54.837,28.891C54.806,28.958 54.706,29.028 54.538,29.102L53.964,29.102L53.894,29.055L53.876,29.055L53.811,29.178L53.852,29.214L53.852,29.489C53.852,29.7 53.892,29.923 53.97,30.157C54.02,30.485 54.073,30.649 54.128,30.649C54.186,30.759 54.325,30.813 54.544,30.813L54.649,30.948L54.649,31.13L54.456,31.259L54.204,31.259L53.829,31.024C53.692,31.024 53.601,30.962 53.554,30.837C53.476,30.837 53.345,30.639 53.161,30.245L53.161,30.075C53.161,30.016 53.126,29.911 53.056,29.759Z" style="fill:rgb(129,129,129);fill-rule:nonzero;stroke:black;stroke-width:0.29px;"/>
        <path d="M56.325,30.35L57.175,30.35C57.714,30.378 57.983,30.409 57.983,30.444L58.095,30.444L58.165,30.397L58.364,30.397L58.669,30.538L59.349,30.538C59.556,30.538 59.688,30.684 59.747,30.977C59.681,31.091 59.585,31.147 59.46,31.147L58.833,31.124L58.786,31.077L57.931,31.077L57.86,31.124C57.333,31.124 57.069,31.163 57.069,31.241L56.864,31.241C56.79,31.241 56.724,31.218 56.665,31.171L56.618,31.171C56.45,31.28 56.306,31.335 56.185,31.335L56.073,31.335C55.745,31.038 55.573,30.839 55.558,30.737C55.558,30.628 55.663,30.555 55.874,30.52C55.987,30.407 56.138,30.35 56.325,30.35ZM57.784,28.827L57.784,28.792C57.784,28.784 57.692,28.727 57.509,28.622C57.325,28.473 57.155,28.272 56.999,28.018C56.796,27.803 56.653,27.616 56.571,27.456L56.343,27.134C56.288,27.091 56.261,27.011 56.261,26.893C56.104,26.78 56.026,26.651 56.026,26.507C55.933,26.507 55.878,26.346 55.862,26.026L55.862,25.968C55.628,25.651 55.511,25.46 55.511,25.393L55.511,25.305L55.622,25.194L55.804,25.194C56.038,25.374 56.155,25.524 56.155,25.645C56.257,25.696 56.333,25.782 56.384,25.903C56.497,25.997 56.554,26.073 56.554,26.132C56.565,26.132 56.686,26.288 56.917,26.6C56.94,26.6 57.054,26.718 57.257,26.952C57.561,27.151 57.763,27.346 57.86,27.538C57.927,27.538 57.96,27.569 57.96,27.632C57.979,27.632 58.061,27.72 58.206,27.895L58.311,28.001C58.311,28.024 58.341,28.048 58.399,28.071L58.769,28.434C58.866,28.552 58.948,28.61 59.015,28.61C59.015,28.692 59.161,28.833 59.454,29.032C59.563,29.11 59.714,29.173 59.905,29.22C59.905,29.243 59.936,29.257 59.999,29.261L59.999,29.454C59.866,29.786 59.688,29.952 59.466,29.952L59.349,29.952C59.224,29.952 59.099,29.889 58.974,29.764C58.892,29.764 58.821,29.712 58.763,29.606L58.645,29.571L58.487,29.495C58.487,29.444 58.411,29.382 58.259,29.307C58.181,29.35 58.085,29.43 57.972,29.548C57.933,29.552 57.913,29.585 57.913,29.647C57.866,29.647 57.843,29.665 57.843,29.7C57.702,29.731 57.544,29.815 57.368,29.952C57.329,29.952 57.27,30.007 57.192,30.116L56.823,30.327L56.7,30.327C56.563,30.327 56.472,30.255 56.425,30.11C56.425,29.911 56.501,29.784 56.653,29.729C56.782,29.546 56.847,29.407 56.847,29.313C56.968,29.231 57.093,29.091 57.222,28.891L57.497,28.78L57.614,28.78C57.677,28.78 57.733,28.796 57.784,28.827Z" style="fill:rgb(129,129,129);fill-rule:nonzero;stroke:black;stroke-width:0.29px;"/>
        <path d="M61.142,29.108C61.392,29.163 61.517,29.266 61.517,29.419C61.544,29.454 61.565,29.52 61.581,29.618C61.788,29.653 61.892,29.712 61.892,29.794C62.001,29.911 62.056,30.009 62.056,30.087L62.056,30.11C61.977,30.352 61.938,30.712 61.938,31.188L61.938,34.382C61.813,34.655 61.751,34.848 61.751,34.962L61.751,35.419L61.704,35.489L61.704,35.712C61.704,35.856 61.622,36.102 61.458,36.45L61.288,36.52L61.147,36.52L60.954,36.327C61.024,36.206 61.06,36.102 61.06,36.016L61.06,35.876C61.06,34.794 61.046,33.93 61.019,33.286C60.952,33.286 60.919,32.882 60.919,32.073L60.872,32.026L60.872,31.645L60.919,31.575L60.919,31.376L60.966,30.948C60.95,30.35 60.919,30.052 60.872,30.052L60.872,29.372C60.942,29.227 61.032,29.139 61.142,29.108ZM63.286,30.403C63.294,30.423 63.298,30.442 63.298,30.462L63.298,30.655L63.181,31.147L63.181,31.235C63.181,31.278 63.204,31.329 63.251,31.387L63.251,32.014C63.22,32.057 63.181,32.218 63.134,32.495L63.11,32.518L63.11,33.86L63.063,34.792L63.017,34.839L63.017,34.845C63.017,35.38 62.985,35.68 62.923,35.747L62.923,35.899C62.923,36.372 62.878,36.696 62.788,36.872C62.737,36.899 62.712,37.075 62.712,37.399L62.712,37.563C62.712,37.653 62.655,37.743 62.542,37.833L62.431,37.833C62.298,37.755 62.231,37.649 62.231,37.516L62.278,36.046L62.325,35.999L62.325,35.091L62.278,35.02L62.255,34.305L62.372,33.555C62.372,33.427 62.333,33.161 62.255,32.759L62.255,32.641L62.237,32.067C62.19,32.067 62.157,31.868 62.138,31.47L62.138,31.188C62.138,30.962 62.169,30.788 62.231,30.667L62.255,30.339L62.255,29.8L62.372,29.495C62.372,29.405 62.019,29.028 61.311,28.364C60.862,27.942 60.638,27.645 60.638,27.473C60.571,27.473 60.503,27.315 60.433,26.999C60.335,26.94 60.286,26.86 60.286,26.759L60.286,26.647L60.456,26.512L60.632,26.512C60.733,26.618 60.886,26.718 61.089,26.811L61.587,27.303C61.587,27.327 61.626,27.354 61.704,27.386C61.704,27.425 61.79,27.52 61.962,27.673C61.962,27.68 61.974,27.684 61.997,27.684C62.161,27.903 62.433,28.2 62.811,28.575L63.087,28.827C63.087,28.979 63.149,29.104 63.274,29.202C63.274,29.257 63.526,29.534 64.03,30.034L64.089,30.087C64.21,30.317 64.333,30.477 64.458,30.567L64.587,30.755L64.587,30.942L64.382,31.177L64.13,31.177C63.989,31.052 63.86,30.989 63.743,30.989C63.477,30.614 63.331,30.423 63.304,30.415C63.296,30.411 63.29,30.407 63.286,30.403Z" style="fill:rgb(129,129,129);fill-rule:nonzero;stroke:black;stroke-width:0.29px;"/>
    </g>
    <g transform="matrix(2.86181,0,0,2.86181,-41.7019,59.0211)">
        <path d="M39.269,26.946L39.737,27.362C39.792,27.362 39.933,27.473 40.159,27.696C40.659,28.091 40.909,28.339 40.909,28.44C40.96,28.44 41.013,28.548 41.067,28.762L41.612,29.331C41.706,29.393 41.806,29.503 41.911,29.659C41.958,29.659 42.02,29.729 42.099,29.87L42.14,29.87L42.456,30.362L42.456,30.479L42.327,30.643L42.122,30.643C42.052,30.6 41.911,30.421 41.7,30.104C41.653,30.104 41.597,30.052 41.53,29.946C41.448,29.919 41.352,29.839 41.243,29.706C40.888,29.475 40.651,29.286 40.534,29.137C40.315,28.954 40.179,28.862 40.124,28.862L39.626,28.417C39.395,28.202 39.163,28.011 38.929,27.843C38.929,27.823 38.827,27.788 38.624,27.737L38.501,27.737L38.501,27.743C38.501,27.755 38.464,27.823 38.39,27.948C38.347,27.948 38.278,28.026 38.185,28.182C38.122,28.182 38.075,28.257 38.044,28.405C37.97,28.421 37.907,28.581 37.856,28.886C37.817,28.886 37.786,28.927 37.763,29.009L37.722,29.055L37.722,30.268C37.894,30.507 38.069,30.68 38.249,30.79C38.272,30.841 38.409,30.927 38.659,31.048C38.659,31.075 38.708,31.089 38.806,31.089L39.274,31.089C39.388,31.089 39.515,31.034 39.655,30.925L39.837,30.925L39.972,31.059L39.972,31.136C39.792,31.386 39.599,31.511 39.392,31.511L38.548,31.511C38.321,31.511 38.128,31.448 37.968,31.323C37.815,31.323 37.698,31.245 37.616,31.089C37.589,31.089 37.409,30.901 37.077,30.526C37.077,30.397 37.007,30.259 36.866,30.11L36.866,28.71C36.866,28.585 36.929,28.468 37.054,28.358L37.077,28.241L37.077,28.095L37.241,27.807C37.272,27.671 37.392,27.511 37.599,27.327C37.681,27.108 37.829,26.925 38.044,26.776L38.173,26.776C38.349,26.776 38.472,26.841 38.542,26.97C38.808,27.001 38.94,27.065 38.94,27.163L38.987,27.169L39.269,26.946ZM38.642,28.3L38.729,28.3L39.122,28.405C39.2,28.487 39.315,28.561 39.468,28.628C39.487,28.671 39.593,28.753 39.784,28.874C39.788,28.901 39.866,28.946 40.019,29.009C40.019,29.055 40.101,29.143 40.265,29.272C40.304,29.378 40.345,29.45 40.388,29.489C40.563,29.583 40.659,29.657 40.675,29.712L40.675,29.805L40.493,29.964C40.388,29.964 40.272,29.872 40.147,29.688L39.638,29.471C39.618,29.405 39.468,29.309 39.186,29.184L39.186,29.167L39.251,29.167C38.97,29.167 38.772,29.11 38.659,28.997L38.466,28.774L38.436,28.546C38.436,28.44 38.505,28.358 38.642,28.3Z" style="fill:rgb(129,129,129);fill-rule:nonzero;stroke:black;stroke-width:0.35px;"/>
        <path d="M45.632,30.151C45.581,30.214 45.556,30.302 45.556,30.415C45.446,30.52 45.362,30.69 45.304,30.925C45.261,30.925 45.145,31.057 44.958,31.323C44.868,31.323 44.753,31.389 44.612,31.522C44.542,31.764 44.384,31.886 44.138,31.886L43.921,31.686C44.026,31.604 44.122,31.495 44.208,31.358C44.329,31.331 44.464,31.186 44.612,30.925C44.663,30.925 44.718,30.831 44.776,30.643C44.866,30.6 44.911,30.491 44.911,30.315L45.099,30.034L45.099,29.026L45.075,28.979L43.599,28.979L42.813,29.009L42.755,28.786C42.755,28.673 42.811,28.596 42.925,28.557C42.944,28.471 43.177,28.346 43.622,28.182L46.147,28.182C46.358,28.182 46.505,28.214 46.587,28.276L46.599,28.276C46.599,28.237 46.806,28.206 47.22,28.182L47.612,28.182C47.8,28.057 47.991,27.995 48.186,27.995L48.444,27.995C48.612,27.995 48.696,28.093 48.696,28.288C48.696,28.413 48.626,28.528 48.485,28.634C48.485,28.755 48.386,28.87 48.186,28.979L48.14,28.979C47.839,28.979 47.645,29.028 47.56,29.126C47.462,29.028 47.28,28.979 47.015,28.979L46.78,28.979C46.714,28.979 46.681,28.999 46.681,29.038L46.727,29.343L46.727,29.401C46.759,29.401 46.79,29.583 46.821,29.946C46.821,30.079 46.79,30.194 46.727,30.292L46.727,30.702C46.727,30.827 46.665,30.928 46.54,31.007L46.54,31.452C46.54,31.522 46.477,31.636 46.352,31.792C46.352,31.96 46.29,32.089 46.165,32.178C46.165,32.323 45.915,32.632 45.415,33.104C45.376,33.104 45.308,33.155 45.21,33.257C45.089,33.413 44.927,33.501 44.724,33.52L44.36,33.661C44.36,33.696 44.278,33.761 44.114,33.854L43.897,33.854L43.733,33.661C43.87,33.415 44.05,33.292 44.272,33.292C44.3,33.292 44.358,33.221 44.448,33.081C44.554,33.081 44.683,33.018 44.835,32.893C44.94,32.788 45.077,32.598 45.245,32.325L45.409,32.026C45.452,32.026 45.489,31.907 45.52,31.669C45.645,31.555 45.708,31.346 45.708,31.042C45.759,31.042 45.802,30.909 45.837,30.643L45.854,30.643L45.872,30.069L45.872,29.167C45.798,29.819 45.718,30.147 45.632,30.151Z" style="fill:rgb(129,129,129);fill-rule:nonzero;stroke:black;stroke-width:0.35px;"/>
    </g>
    <g transform="matrix(1,0,0,1,-40.5558,30.2044)">
        <g transform="matrix(4.36996,1.07033e-15,-1.07033e-15,4.36996,31.5858,-16.3384)">
            <path d="M38.214,27.942L38.436,27.942L38.718,28.083L40.563,28.083L41.472,28.106L41.917,28.475L41.917,28.598C41.823,28.786 41.708,28.88 41.571,28.88L40.394,28.88L40.394,30.134C40.394,30.544 40.456,30.932 40.581,31.3L40.581,32.184C40.456,32.43 40.394,32.606 40.394,32.712L40.394,34.528L40.341,34.622L40.206,35.641L40.206,36.093C40.14,36.253 40.019,36.333 39.843,36.333L39.843,36.309C39.788,36.309 39.741,36.151 39.702,35.835C39.608,35.643 39.561,35.477 39.561,35.337L39.561,35.161L39.515,35.091L39.515,33.098L39.561,33.028L39.561,31.27L39.515,31.2L39.515,29.987C39.64,29.686 39.702,29.423 39.702,29.196L39.702,29.114L39.749,29.044L39.749,28.95L39.696,28.88L39.491,28.88C39.186,28.899 39.034,28.942 39.034,29.009L39.034,29.184C39.097,29.251 39.128,29.427 39.128,29.712L39.128,30.028L39.175,30.098L39.175,30.216L39.128,30.286L39.128,30.35L39.081,30.901C39.112,31.108 39.144,31.231 39.175,31.27L39.175,32.132C39.05,32.413 38.987,32.925 38.987,33.667L38.94,33.714L38.94,34.188C38.94,34.399 38.849,34.505 38.665,34.505L38.548,34.505C38.427,34.505 38.358,34.376 38.343,34.118L38.366,32.899C38.366,32.673 38.311,32.473 38.202,32.302L38.179,32.173L38.179,30.796L38.149,30.696L38.179,30.596L38.179,30.075C38.304,29.911 38.366,29.805 38.366,29.759L38.366,29.149C38.366,29.083 38.286,29.04 38.126,29.02L38.102,28.997L38.02,28.997L37.956,29.044L37.423,29.067C37.181,28.927 36.995,28.737 36.866,28.499L36.866,28.305C36.866,28.157 37.052,28.083 37.423,28.083L37.933,28.083L38.214,27.942Z" style="fill:rgb(129,129,129);fill-rule:nonzero;stroke:black;stroke-width:0.23px;"/>
        </g>
        <g transform="matrix(4.36996,1.07033e-15,-1.07033e-15,4.36996,32.7892,95.0471)">
            <path d="M37.686,30.35L38.536,30.35C39.075,30.378 39.345,30.409 39.345,30.444L39.456,30.444L39.526,30.397L39.726,30.397L40.03,30.538L40.71,30.538C40.917,30.538 41.05,30.684 41.108,30.977C41.042,31.091 40.946,31.147 40.821,31.147L40.194,31.124L40.147,31.077L39.292,31.077L39.222,31.124C38.694,31.124 38.431,31.163 38.431,31.241L38.226,31.241C38.151,31.241 38.085,31.218 38.026,31.171L37.979,31.171C37.811,31.28 37.667,31.335 37.546,31.335L37.435,31.335C37.106,31.038 36.935,30.839 36.919,30.737C36.919,30.628 37.024,30.555 37.235,30.52C37.349,30.407 37.499,30.35 37.686,30.35ZM39.145,28.827L39.145,28.792C39.145,28.784 39.054,28.727 38.87,28.622C38.686,28.473 38.517,28.272 38.36,28.018C38.157,27.803 38.015,27.616 37.933,27.456L37.704,27.134C37.649,27.091 37.622,27.011 37.622,26.893C37.466,26.78 37.388,26.651 37.388,26.507C37.294,26.507 37.239,26.346 37.224,26.026L37.224,25.968C36.989,25.651 36.872,25.46 36.872,25.393L36.872,25.305L36.983,25.194L37.165,25.194C37.399,25.374 37.517,25.524 37.517,25.645C37.618,25.696 37.694,25.782 37.745,25.903C37.858,25.997 37.915,26.073 37.915,26.132C37.927,26.132 38.048,26.288 38.278,26.6C38.302,26.6 38.415,26.718 38.618,26.952C38.923,27.151 39.124,27.346 39.222,27.538C39.288,27.538 39.321,27.569 39.321,27.632C39.341,27.632 39.423,27.72 39.567,27.895L39.673,28.001C39.673,28.024 39.702,28.048 39.761,28.071L40.13,28.434C40.227,28.552 40.31,28.61 40.376,28.61C40.376,28.692 40.522,28.833 40.815,29.032C40.925,29.11 41.075,29.173 41.267,29.22C41.267,29.243 41.298,29.257 41.36,29.261L41.36,29.454C41.227,29.786 41.05,29.952 40.827,29.952L40.71,29.952C40.585,29.952 40.46,29.889 40.335,29.764C40.253,29.764 40.183,29.712 40.124,29.606L40.007,29.571L39.849,29.495C39.849,29.444 39.772,29.382 39.62,29.307C39.542,29.35 39.446,29.43 39.333,29.548C39.294,29.552 39.274,29.585 39.274,29.647C39.227,29.647 39.204,29.665 39.204,29.7C39.063,29.731 38.905,29.815 38.729,29.952C38.69,29.952 38.632,30.007 38.554,30.116L38.185,30.327L38.061,30.327C37.925,30.327 37.833,30.255 37.786,30.11C37.786,29.911 37.862,29.784 38.015,29.729C38.144,29.546 38.208,29.407 38.208,29.313C38.329,29.231 38.454,29.091 38.583,28.891L38.858,28.78L38.976,28.78C39.038,28.78 39.095,28.796 39.145,28.827Z" style="fill:rgb(129,129,129);fill-rule:nonzero;stroke:black;stroke-width:0.23px;"/>
        </g>
        <g transform="matrix(4.36996,1.07033e-15,-1.07033e-15,4.36996,33.6598,25.9897)">
            <path d="M37.47,27.327L38.079,27.374L39.087,27.374C39.11,27.405 39.185,27.421 39.31,27.421C39.653,27.514 39.936,27.561 40.159,27.561L40.288,27.561C40.425,27.655 40.632,27.755 40.909,27.86L40.974,27.971C40.935,28.061 40.825,28.136 40.645,28.194L40.399,28.194C40.399,28.163 40.247,28.132 39.942,28.1L39.175,28.141L39.128,28.194L38.946,28.194C38.899,28.151 38.819,28.128 38.706,28.124C38.593,28.128 38.513,28.151 38.466,28.194L37.569,28.194L37.335,28.382C37.214,28.382 37.056,28.249 36.86,27.983L36.86,27.544C36.935,27.399 37.138,27.327 37.47,27.327ZM38.735,28.264L38.946,28.264C39.239,28.593 39.433,28.757 39.526,28.757L39.755,28.985L39.755,29.19C39.755,29.253 39.657,29.313 39.462,29.372L39.45,29.407L39.474,29.682L39.45,30.52L39.403,30.567L39.403,30.977C39.31,31.188 39.263,31.35 39.263,31.464L39.263,31.792C39.2,31.987 39.142,32.085 39.087,32.085L39.022,32.132C38.819,32.132 38.685,31.839 38.618,31.253L38.618,30.468C38.556,30.378 38.524,30.186 38.524,29.893L38.524,29.882L38.477,29.811L38.477,29.718L38.524,29.647L38.524,29.624C38.477,29.624 38.454,29.595 38.454,29.536L38.413,29.53L37.675,29.553C37.577,29.553 37.493,29.497 37.423,29.384L37.423,29.278C37.474,29.188 37.602,29.077 37.81,28.944L38.12,28.944C38.272,28.944 38.423,28.88 38.571,28.751L38.519,28.528C38.569,28.387 38.642,28.3 38.735,28.264Z" style="fill:rgb(129,129,129);fill-rule:nonzero;stroke:black;stroke-width:0.23px;"/>
        </g>
        <g transform="matrix(4.36996,1.07033e-15,-1.07033e-15,4.36996,30.9968,59.4993)">
            <path d="M37.874,25.106L38.015,25.106L38.272,25.153L38.519,25.153C38.796,25.266 39.017,25.339 39.181,25.37L39.374,25.428C39.452,25.522 39.591,25.591 39.79,25.634C39.806,25.704 39.905,25.766 40.089,25.821L40.341,26.208C40.341,26.294 40.444,26.419 40.651,26.583C40.862,26.813 40.977,26.997 40.997,27.134C41.056,27.173 41.11,27.249 41.161,27.362L41.161,27.579C41.231,27.977 41.302,28.177 41.372,28.177C41.372,28.216 41.388,28.237 41.419,28.241L41.829,28.106L41.87,28.106C42.038,28.106 42.145,28.171 42.192,28.3L42.192,28.428C42.11,28.636 42.005,28.739 41.876,28.739C41.595,29.052 41.354,29.208 41.155,29.208L40.927,29.161L40.376,29.184C40.376,29.122 40.319,29.091 40.206,29.091L40.071,29.091C40.001,29.098 39.966,29.134 39.966,29.196C39.966,29.317 40.026,29.452 40.147,29.6L40.177,29.805C40.177,29.927 40.114,30.057 39.989,30.198L39.942,31.317L39.895,31.387L39.895,31.938C39.895,32.134 39.864,32.278 39.802,32.372L39.802,33.227C39.802,33.473 39.706,33.911 39.515,34.54L39.403,33.825C39.372,33.813 39.321,33.7 39.251,33.485L39.251,33.321C39.251,33.114 39.22,32.85 39.157,32.53L39.134,32.225L39.134,31.798C39.134,31.591 39.079,31.335 38.97,31.03L38.97,30.55L39.11,30.245L39.11,29.981C39.063,29.923 39.04,29.807 39.04,29.636L39.204,29.19L39.204,29.178C39.177,29.12 39.128,29.091 39.058,29.091L37.675,29.091C37.433,29.091 37.171,29.003 36.89,28.827L36.86,28.71C36.86,28.557 36.94,28.481 37.101,28.481C37.186,28.356 37.362,28.294 37.628,28.294L38.173,28.294L38.519,28.317L38.911,28.294L40.065,28.294L40.095,28.182C40.095,27.964 40.052,27.794 39.966,27.673L39.907,27.567L39.907,27.368C39.907,27.212 39.845,27.077 39.72,26.964C39.72,26.846 39.642,26.696 39.485,26.512C39.485,26.481 39.458,26.44 39.403,26.389C39.231,26.081 39.085,25.927 38.964,25.927C38.87,25.833 38.761,25.786 38.636,25.786L38.501,25.786C38.333,25.661 38.229,25.598 38.19,25.598L37.933,25.598L37.751,25.417L37.751,25.294L37.874,25.106ZM39.163,26.934L39.38,26.934C39.524,26.985 39.649,27.11 39.755,27.309L39.755,27.374C39.63,27.659 39.427,27.802 39.145,27.802C39.145,27.848 39.03,27.872 38.8,27.872L38.735,27.872C38.36,27.778 38.173,27.677 38.173,27.567L38.12,27.485C38.186,27.286 38.292,27.165 38.436,27.122L38.729,27.122C38.866,27.122 39.011,27.059 39.163,26.934Z" style="fill:rgb(129,129,129);fill-rule:nonzero;stroke:black;stroke-width:0.23px;"/>
        </g>
    </g>
</svg>
