<?xml version="1.0" encoding="utf-8"?>
<!-- Generator: Fusion 360, Shaper Origin Export Add-In, Version 1.5.0  -->
<svg enable-background="new 0 0 8.8 11" height="11cm" shaper:fusionaddin="version:1.5.0" version="1.1" viewBox="0 0 8.8 11" width="8.8cm" x="0cm" xml:space="preserve" xmlns="http://www.w3.org/2000/svg" xmlns:shaper="http://www.shapertools.com/namespaces/shaper" xmlns:xlink="http://www.w3.org/1999/xlink" y="0cm"><path d="M8.2,7.3333333 L7.6,7.3333333 7.6,11 -0,11 0,7.3333333 -0.6,7.3333333 -0.6,3.6666667 -0,3.6666667 0,-0 7.6,0 7.6,3.6666667 8.2,3.6666667 8.2,7.3333333z" fill="rgb(0,0,0)" shaper:cutDepth="0" shaper:pathType="exterior" transform="matrix(1,0,0,-1,0.6,11)" vector-effect="non-scaling-stroke" /><path d="M4.3069068,7.4266161 L6.5186173,8.9752724 6.8627632,8.4837812 4.6510526,6.9351248 4.3069068,7.4266161z" fill="rgb(255,255,255)" shaper:cutDepth="0" shaper:pathType="interior" stroke="rgb(0,0,0)" transform="matrix(1,0,0,-1,0.6,11)" vector-effect="non-scaling-stroke" /><path d="M1.0813827,3.9752724 L3.2930932,2.4266161 2.9489474,1.9351248 0.7372368,3.4837812 1.0813827,3.9752724z" fill="rgb(255,255,255)" shaper:cutDepth="0" shaper:pathType="interior" stroke="rgb(0,0,0)" transform="matrix(1,0,0,-1,0.6,11)" vector-effect="non-scaling-stroke" /></svg>