<?xml version="1.0" encoding="utf-8"?>
<!-- Generator: Fusion 360, Shaper Origin Export Add-In, Version 1.5.0  -->
<svg enable-background="new 0 0 10 20" height="20cm" shaper:fusionaddin="version:1.5.0" version="1.1" viewBox="0 0 10 20" width="10cm" x="0cm" xml:space="preserve" xmlns="http://www.w3.org/2000/svg" xmlns:shaper="http://www.shapertools.com/namespaces/shaper" xmlns:xlink="http://www.w3.org/1999/xlink" y="0cm"><path d="M9.4,17.2444444 L8.8,17.2444444 8.8,19.4 9.4,19.4 9.4,20 7.4,20 7.4,19.4 5.4,19.4 5.4,20 3.4,20 3.4,19.4 1.4,19.4 1.4,20 -0.6,20 -0.6,19.4 0,19.4 0,17.2444444 -0.6,17.2444444 -0.6,15.0888889 0,15.0888889 0,12.9333333 -0.6,12.9333333 -0.6,10.7777778 0,10.7777778 -0,8.6222222 -0.6,8.6222222 -0.6,6.4666667 0,6.4666667 -0,4.3111111 -0.6,4.3111111 -0.6,2.1555556 -0,2.1555556 -0,0 8.8,0 8.8,2.1555556 9.4,2.1555556 9.4,4.3111111 8.8,4.3111111 8.8,6.4666667 9.4,6.4666667 9.4,8.6222222 8.8,8.6222222 8.8,10.7777778 9.4,10.7777778 9.4,12.9333333 8.8,12.9333333 8.8,15.0888889 9.4,15.0888889 9.4,17.2444444z" fill="rgb(0,0,0)" shaper:cutDepth="0" shaper:pathType="exterior" transform="matrix(1,0,0,-1,0.6,20)" vector-effect="non-scaling-stroke" /></svg>