<?xml version="1.0" encoding="UTF-8" standalone="no"?>
<!DOCTYPE svg PUBLIC "-//W3C//DTD SVG 1.1//EN" "http://www.w3.org/Graphics/SVG/1.1/DTD/svg11.dtd">
<svg width="100%" height="100%" viewBox="0 0 284 103" version="1.1" xmlns="http://www.w3.org/2000/svg" xmlns:xlink="http://www.w3.org/1999/xlink" xml:space="preserve" xmlns:serif="http://www.serif.com/" style="fill-rule:evenodd;clip-rule:evenodd;stroke-linejoin:round;stroke-miterlimit:2;">
    <g transform="matrix(-1,1.22465e-16,1.22465e-16,1,283.465,1.42109e-14)">
        <path d="M283.465,85.039L226.772,85.039L226.772,102.047L170.079,102.047L170.079,85.039L113.386,85.039L113.386,102.047L56.693,102.047L56.693,85.039L0,85.039L0,0L283.465,0L283.465,85.039Z" style="fill:white;fill-rule:nonzero;stroke:rgb(255,0,0);stroke-width:1px;"/>
    </g>
    <g id="_5e-Dungeons---Dragons-Logo" serif:id="5e Dungeons &amp; Dragons Logo" transform="matrix(0.596554,0,0,0.596554,143.732,43.5285)">
        <g transform="matrix(1,0,0,1,-230,-50)">
            <clipPath id="_clip1">
                <rect x="0" y="0" width="460" height="100"/>
            </clipPath>
            <g clip-path="url(#_clip1)">
                <g id="D_D_Logos">
                    <g id="Dungeons_Dragons">
                        <path d="M224,35.83C223.646,33.077 224.584,30.31 226.54,28.34C228.54,26.34 231.22,25.07 235.19,25.28C241.47,25.62 244.48,29.92 244.48,34.57C244.298,37.399 243.251,40.106 241.48,42.32L241.15,41.99C239.701,40.778 238.362,39.439 237.15,37.99C239.26,34.86 238.36,29.99 234.54,29.99C232.14,29.99 230.18,32.48 230.95,35.57C230.551,37.012 230.466,38.522 230.7,40C228.631,38.996 227.092,37.147 226.48,34.93C225.644,36.554 225.434,38.431 225.89,40.2C224.753,39.02 224.081,37.467 224,35.83M225.57,43.45C225.82,42.45 223.92,40.85 223.21,40.54C224.526,40.434 225.851,40.566 227.12,40.93C226.416,39.814 226.226,38.446 226.6,37.18C228.03,40.58 233.1,41.18 234.36,43.96C233.969,42.514 233.004,41.289 231.69,40.57C230.97,38.72 231.51,35.29 232.38,34.35C232.08,39.27 239.1,42.08 240.55,45.66C239.7,42.59 236.43,40.66 234.88,38.82C234.457,37.486 234.613,36.034 235.31,34.82C235.15,38.12 238.7,40.69 240.6,42.53C242.84,44.69 243.48,46.61 243.17,48.18C243.824,48.314 244.279,48.925 244.22,49.59C244.947,49.346 245.536,48.804 245.84,48.1C246.19,50.55 244.76,53.1 243.15,53.91C243.39,53.215 243.274,52.444 242.84,51.85C242.09,51 240,51 239.34,51C239.34,51 240.19,49.74 239.85,49.1C239.51,48.46 235.41,48.66 233.61,49.31C234.478,49.267 235.347,49.372 236.18,49.62C235.9,50.04 235.18,51.81 235.69,52.34C236.2,52.87 236.82,51.98 236.82,51.98C236.82,51.98 236.19,53.92 236.64,54.37C237.09,54.82 238.06,54.5 238.06,54.5C237.46,56.02 235.12,57.07 233.48,57.07C234.254,56.682 234.859,56.024 235.18,55.22C234.54,55.448 233.857,55.533 233.18,55.47C234.189,54.79 234.688,53.561 234.44,52.37C233.96,50.13 230.84,49.85 229.27,50.93C229.861,49.429 231.018,48.219 232.49,47.56C231.71,47.298 230.911,47.094 230.1,46.95C231.532,46.046 233.187,45.558 234.88,45.54C232.88,45.04 229.37,45.67 227.74,47.54C228.545,47.602 229.342,47.743 230.12,47.96C227.822,48.624 225.721,49.839 224,51.5C224.24,50.21 224.6,49.12 224.3,48.33C223.87,47.24 222.54,46.78 219.88,47.33C221.67,45.54 225.34,44.43 225.58,43.46M237.78,45.19C238.14,46.44 238.61,47.58 240.12,47.58C239.727,46.48 238.871,45.606 237.78,45.19M261.87,43.48C259.24,43.48 257.75,44.77 257.37,44.19C256.89,43.44 259.15,42.34 259.15,42.34C256.04,42.47 253.78,46.13 252.84,45.68C252.28,45.41 253.68,43.68 253.68,43.68C250.98,45.364 248.953,47.94 247.95,50.96C250.57,47.76 255.66,45.46 258.95,45.96C253.12,46.25 248.13,51.4 245.77,54.76C246.248,54.901 246.693,55.136 247.08,55.45L249.29,57.25C250.467,54.514 252.041,51.967 253.96,49.69C256.05,47.29 259.7,47.07 261.61,48.52C262.84,47.41 267.08,46.36 269.31,47C267.372,44.923 264.698,43.681 261.86,43.54M260.09,58.99C261.604,59.294 262.734,60.588 262.83,62.13C262.83,64.95 259.31,65.82 257.36,65.38C259.43,63.94 259.15,59.82 256.67,58.38C257.51,60.69 254.98,62.99 252.53,60.97C251.17,59.85 248,57.22 246.6,56.09C245.2,54.96 243.54,55.62 242.89,55.09C242.24,54.56 242.62,52.95 241.61,52.35C240.76,51.86 239.93,52.14 238.94,51.81C238.05,51.615 237.429,50.789 237.49,49.88C237.057,50.734 237.167,51.767 237.77,52.51C238.44,53.29 239.57,53.77 240.03,54.63C240.63,55.74 239.62,57.28 242.29,59.37C243.57,60.37 245.55,62.01 246.85,63.15C249.02,65.06 247.85,67.44 248.14,69.53C248.432,71.48 249.837,73.089 251.73,73.64C250.381,72.196 250.381,69.924 251.73,68.48C251.907,71.332 253.866,73.782 256.61,74.58C260.16,75.52 263.94,73.51 264.72,72.09C263.35,72.71 260.72,72.04 259.72,71.09C263.89,71.68 267.58,68.78 267.58,65.09C267.58,61.4 264.07,58.67 260.07,59.09M242.22,60.41C240.93,62.88 237.7,66.41 234.45,66.41C228.68,66.41 225.83,58.08 232.67,51.48C232.285,51.316 231.869,51.234 231.45,51.24C230.197,51.346 229.028,51.921 228.18,52.85C228.156,51.471 228.577,50.121 229.38,49C226.972,50.014 224.799,51.515 223,53.41C223,50.75 224,49.2 223.38,48.41C223.352,48.369 223.318,48.332 223.28,48.3C223.242,48.268 218.57,51.41 218.11,56.51C218.411,56.068 218.808,55.699 219.27,55.43C219.62,55.29 219.93,55.43 219.59,56.51C219.47,56.92 216.37,65.28 222.45,71.06C222.45,71.06 221.78,69.36 222.18,68.84C222.38,68.59 222.63,68.57 222.99,69.02C223.35,69.47 223.52,69.7 223.81,70.02C224.316,70.595 224.871,71.123 225.47,71.6C227.545,73.066 230.019,73.865 232.56,73.89C240.35,73.89 244.35,68.33 246.5,63.89L246.26,63.65C245.13,62.65 243.43,61.24 242.17,60.24" style="fill:rgb(192,192,192);fill-rule:nonzero;stroke:rgb(0,47,255);stroke-width:0.7px;"/>
                        <path d="M146.57,37.5C138.47,37.5 132.57,43.16 132.57,50.96C132.57,58.76 138.48,64.21 146.57,64.21C154.66,64.21 160.75,58.44 160.75,50.79C160.75,43.14 154.69,37.5 146.57,37.5M146.5,43.8C150.66,43.8 153.35,46.54 153.35,50.8C153.35,55.06 150.62,58 146.71,58C142.65,58 140.02,55.25 140.02,51C140.02,46.58 142.51,43.84 146.5,43.84" style="fill:rgb(192,192,192);fill-rule:nonzero;stroke:rgb(0,47,255);stroke-width:0.7px;"/>
                        <path d="M21.77,39.43C19.795,38.416 17.61,37.882 15.39,37.87L10.18,37.87C6.06,37.87 4.1,37.81 2.67,37.48C1.84,37.261 1.045,36.924 0.31,36.48L0,36.25L0,36.62C0,36.74 0.3,39.54 3.64,41.98C4.28,42.44 4.73,42.9 4.73,44.54L4.73,59.54C4.73,61.14 4.42,61.59 3.73,62.04L1.25,63.46L0.67,63.8L14.23,63.8C18.03,63.8 20.39,63.16 22.97,61.44C24.023,60.743 24.961,59.886 25.75,58.9C27.533,56.568 28.487,53.706 28.46,50.77C28.56,46.035 25.963,41.632 21.77,39.43M14.91,57.49L12,57.49L12,44.15L14.91,44.15C18.73,44.15 20.91,46.59 20.91,50.84C20.91,55.09 18.72,57.49 14.91,57.49" style="fill:rgb(192,192,192);fill-rule:nonzero;stroke:rgb(0,47,255);stroke-width:0.7px;"/>
                        <path d="M57.26,37.87L56.7,38.21C56.7,38.21 55.28,39.08 54.41,39.65C53.54,40.22 53.33,40.52 53.33,42.21L53.33,53.11C53.44,54.864 53.167,56.622 52.53,58.26C51,62 47.13,64.21 42.2,64.21C39.022,64.36 35.919,63.199 33.62,61C32.849,60.272 32.224,59.403 31.78,58.44C31.17,56.663 30.905,54.786 31,52.91L31,42.21C31,40.52 30.7,40.21 29.91,39.65C29.12,39.09 27.64,38.22 27.63,38.21L27,37.87L38,37.87C38.376,37.896 38.742,38.005 39.07,38.19L39.25,38.3L39.13,38.46C39.13,38.46 38.74,38.98 38.52,39.33C38.305,39.669 38.206,40.07 38.24,40.47L38.24,53.68C38.24,56.55 39.59,58.01 42.24,58.01C44.89,58.01 46.1,56.6 46.14,53.81L46.14,40.47C46.177,40.068 46.075,39.665 45.85,39.33C45.63,38.98 45.25,38.47 45.25,38.46L45.13,38.3L45.31,38.19C45.638,38.005 46.004,37.896 46.38,37.87L57.26,37.87Z" style="fill:rgb(192,192,192);fill-rule:nonzero;stroke:rgb(0,47,255);stroke-width:0.7px;"/>
                        <path d="M208.81,56.3C208.69,61.15 204.53,64.3 198.21,64.3C197.74,64.3 197.21,64.3 196.78,64.25C195.32,64.14 192.46,63.64 191.59,63.45C190.72,63.26 190.43,63.16 190.41,63.16L190.32,63.16L189.82,62.99L189.27,53.28L190.62,54.28L191.93,55.28L192.13,55.44C193.72,56.881 195.686,57.841 197.8,58.21L198.93,58.21C201.3,58.21 201.61,57.37 201.71,56.58C201.91,55.07 200.45,54.29 199.2,53.9L198.74,53.76C196.443,53.149 194.222,52.281 192.12,51.17C190.019,49.854 188.815,47.473 189,45C189.37,40 192.74,37.28 198.52,37.29C199,37.29 199.52,37.29 200.02,37.34C201.607,37.522 203.182,37.789 204.74,38.14C205.139,38.217 205.533,38.317 205.92,38.44L206.01,38.44L206.52,38.61L206.94,46.27C204.686,44.658 202.068,43.627 199.32,43.27L198.5,43.27C197.606,43.205 196.718,43.464 196,44C195.781,44.223 195.665,44.528 195.68,44.84C195.68,45.9 197.3,46.36 199.76,46.94L199.86,46.94L200.91,47.19C206.3,48.56 208.98,51.63 208.86,56.31" style="fill:rgb(192,192,192);fill-rule:nonzero;stroke:rgb(0,47,255);stroke-width:0.7px;"/>
                        <path d="M131.65,55.14L129.72,63.8L108.2,63.8L108.79,63.45C108.79,63.45 110.44,62.45 111.24,62.01C112.04,61.57 112.29,61.21 112.29,59.51L112.29,42.21C112.29,40.53 112,40.21 111.21,39.65C110.42,39.09 108.95,38.22 108.93,38.21L108.38,37.87L129.14,37.87L129.93,46.09L128.42,44.94C127.636,44.31 126.626,44.031 125.63,44.17L119.52,44.17L119.52,47.4L125.61,47.4C126.155,47.468 126.709,47.413 127.23,47.24C127.454,47.141 127.671,47.028 127.88,46.9L128.1,46.77L128.1,55.08L127.83,54.68C127.607,54.351 127.309,54.08 126.96,53.89C126.312,53.699 125.633,53.634 124.96,53.7L119.46,53.7L119.46,57.5L125.34,57.5C127.65,57.5 128.4,57.29 129.34,56.7C129.84,56.39 131.57,55.14 131.57,55.14" style="fill:rgb(192,192,192);fill-rule:nonzero;stroke:rgb(0,47,255);stroke-width:0.7px;"/>
                        <path d="M85,37.87L84.33,38.22C84.33,38.22 82.71,39.06 81.84,39.65C80.97,40.24 80.75,40.54 80.75,42.21L80.75,64.63L65,49.2L65,59.51C65,61.17 65.32,61.51 66.06,62.01C66.8,62.51 68.48,63.45 68.5,63.45L69.09,63.8L54.39,63.8L54.98,63.45C54.98,63.45 56.61,62.52 57.44,62.01C58.27,61.5 58.5,61.19 58.5,59.51L58.5,42.42C58.5,40.73 58.14,40.18 57.38,39.63C56.62,39.08 55.3,38.21 55.29,38.21L54.77,37.87L63.4,37.87L74.25,48.49L74.25,42.21C74.25,40.53 73.96,40.21 73.17,39.65C72.38,39.09 70.91,38.22 70.89,38.21L70.34,37.87L85,37.87Z" style="fill:rgb(192,192,192);fill-rule:nonzero;stroke:rgb(0,47,255);stroke-width:0.7px;"/>
                        <path d="M190.15,37.87L189.48,38.22C188.629,38.653 187.801,39.13 187,39.65C186.19,40.2 185.92,40.54 185.92,42.21L185.92,64.63L170.14,49.2L170.14,59.51C170.14,61.17 170.47,61.51 171.21,62.01C171.95,62.51 173.63,63.45 173.65,63.45L174.24,63.8L159.5,63.8L160.09,63.45C160.09,63.45 161.72,62.52 162.55,62.01C163.38,61.5 163.55,61.19 163.55,59.51L163.55,42.42C163.55,40.73 163.2,40.18 162.45,39.63C161.7,39.08 160.36,38.21 160.35,38.21L159.83,37.87L168.47,37.87L179.32,48.49L179.32,42.21C179.32,40.53 179.02,40.21 178.23,39.65C177.44,39.09 176,38.22 176,38.21L175.45,37.87L190.15,37.87Z" style="fill:rgb(192,192,192);fill-rule:nonzero;stroke:rgb(0,47,255);stroke-width:0.7px;"/>
                        <path d="M108.23,62.29C108.23,62.29 107.84,61.77 107.62,61.42C107.342,60.921 107.233,60.346 107.31,59.78L107.31,52.78C107.31,51.73 107.4,51.53 107.6,51.21C107.8,50.89 108.2,50.35 108.2,50.35L108.33,50.18L108.14,50.08C107.828,49.915 107.49,49.807 107.14,49.76L96.14,49.76L96.7,50.09L99,51.54C99.72,51.99 100.08,52.54 100.08,54.04L100.08,57.85C99.212,58.117 98.308,58.245 97.4,58.23C92.96,58.23 90.7,55.82 90.7,51.09C90.7,46.58 93.17,43.98 97.48,43.98C100.764,43.976 103.948,45.118 106.48,47.21L106.48,47.03L105.69,39.52L105.64,38.97L105.09,38.84L104.57,38.72C103.06,38.34 101.526,38.056 99.98,37.87C99.231,37.763 98.476,37.713 97.72,37.72L97.28,37.72C89.16,37.72 83.28,43.4 83.28,51.22C83.28,59.04 89.2,64.52 97.36,64.52C99.344,64.477 101.32,64.269 103.27,63.9L104.05,63.72L104.22,63.72C105.22,63.49 106.22,63.24 107.22,62.93L108.49,62.53L108.23,62.29Z" style="fill:rgb(192,192,192);fill-rule:nonzero;stroke:rgb(0,47,255);stroke-width:0.7px;"/>
                        <path d="M294.59,39.43C292.615,38.416 290.43,37.882 288.21,37.87L283,37.87C278.88,37.87 276.92,37.81 275.49,37.48C274.66,37.261 273.865,36.924 273.13,36.48L272.82,36.27L272.82,36.64C272.82,36.76 273.12,39.56 276.46,42C277.1,42.46 277.55,42.92 277.55,44.56L277.55,59.56C277.55,61.16 277.24,61.61 276.5,62.06C275.76,62.51 274.04,63.51 274.04,63.51L273.46,63.85L287.02,63.85C290.82,63.85 293.19,63.21 295.76,61.49C296.813,60.793 297.751,59.936 298.54,58.95C300.323,56.618 301.277,53.756 301.25,50.82C301.35,46.085 298.753,41.682 294.56,39.48M287.7,57.54L284.78,57.54L284.78,44.15L287.7,44.15C291.52,44.15 293.7,46.59 293.7,50.84C293.7,55.09 291.51,57.49 287.7,57.49" style="fill:rgb(192,192,192);fill-rule:nonzero;stroke:rgb(0,47,255);stroke-width:0.7px;"/>
                        <path d="M444.26,47.18L443.2,46.93L443.11,46.93C440.65,46.34 439.03,45.93 439.03,44.82C439.012,44.507 439.129,44.202 439.35,43.98C440.085,43.45 440.989,43.208 441.89,43.3L442.72,43.3C445.466,43.664 448.083,44.694 450.34,46.3L449.91,38.65L449.41,38.48L449.32,38.48C449.27,38.48 448.99,38.37 448.13,38.19C446.572,37.838 444.997,37.571 443.41,37.39C442.9,37.39 442.41,37.33 441.91,37.33C436.14,37.33 432.76,40.08 432.39,45.05C432.205,47.525 433.409,49.909 435.51,51.23C437.612,52.341 439.833,53.209 442.13,53.82L442.59,53.96C443.85,54.35 445.3,55.13 445.1,56.64C445,57.43 444.69,58.27 442.32,58.27L441.19,58.27C439.079,57.901 437.116,56.94 435.53,55.5L435.33,55.34L434.02,54.34L432.67,53.34L433.21,63.05L433.71,63.22L433.81,63.22C433.81,63.22 434.1,63.32 434.98,63.51C435.86,63.7 438.72,64.2 440.18,64.31C440.65,64.31 441.13,64.36 441.61,64.36C447.92,64.36 452.08,61.22 452.2,56.36C452.32,51.68 449.65,48.61 444.26,47.24" style="fill:rgb(192,192,192);fill-rule:nonzero;stroke:rgb(0,47,255);stroke-width:0.7px;"/>
                        <path d="M390,37.52C381.91,37.52 376,43.18 376,50.98C376,58.78 381.9,64.23 390,64.23C398.1,64.23 404.18,58.46 404.18,50.81C404.18,43.16 398.09,37.52 390,37.52M390.1,58C386.04,58 383.42,55.25 383.42,51C383.42,46.75 385.9,43.84 389.89,43.84C394.06,43.84 396.75,46.58 396.75,50.84C396.75,55.1 394,58 390.1,58" style="fill:rgb(192,192,192);fill-rule:nonzero;stroke:rgb(0,47,255);stroke-width:0.7px;"/>
                        <path d="M349.54,60.6C349.323,60.287 349.138,59.951 348.99,59.6C348.93,59.47 340.42,37.89 340.42,37.89L330.2,37.89L332,39.54C332.38,39.9 332.38,40.05 332.38,40.19C332.388,40.307 332.388,40.423 332.38,40.54C332.372,40.657 324.61,59.29 324.53,59.45C323.2,57.99 321.06,55.29 318.35,51.67C319.306,51.13 320.121,50.373 320.73,49.46C321.573,48.238 322.016,46.784 322,45.3C322.089,42.098 319.946,39.232 316.85,38.41C315.34,37.998 313.773,37.83 312.21,37.91L299.88,37.91L300.42,38.25L302.71,39.69C303.44,40.14 303.79,40.69 303.79,42.24L303.79,59.51C303.79,61.17 303.38,61.56 302.72,62.01C302.06,62.46 299.72,63.8 299.72,63.8L314.89,63.8C313.813,63.261 312.768,62.66 311.76,62C310.99,61.41 310.68,61.11 310.68,59.49L310.68,54C310.817,54.026 310.951,54.066 311.08,54.12C311.783,54.587 312.379,55.197 312.83,55.91L319.36,63.78L333.6,63.78C333.6,63.78 332.2,62.65 331.6,62.1C331,61.55 330.99,61.33 331.38,60.4C331.47,60.18 331.62,59.76 331.81,59.25L341.21,59.25C341.4,59.78 341.55,60.25 341.63,60.4C341.934,60.988 341.788,61.715 341.28,62.14C340.76,62.68 339.61,63.79 339.61,63.79L353.17,63.79L351,62.08C350.422,61.69 349.928,61.186 349.55,60.6M311.55,49.1L310.68,49.1L310.68,43.1L311.56,43.1C314.05,43.1 314.91,44 314.91,45.33C314.91,48.79 313.19,49.16 311.55,49.16M334.15,53.16L336.69,46.79L339,53.1L334.15,53.16Z" style="fill:rgb(192,192,192);fill-rule:nonzero;stroke:rgb(0,47,255);stroke-width:0.7px;"/>
                        <path d="M433.54,37.87L418.84,37.87L419.4,38.21C419.4,38.21 420.82,39.08 421.68,39.65C422.54,40.22 422.76,40.53 422.76,42.21L422.76,48.49L411.91,37.87L403.28,37.87L403.79,38.2C403.79,38.2 405.13,39.07 405.89,39.63C406.65,40.19 407,40.73 407,42.42L407,59.51C407,61.19 406.69,61.51 405.94,62.01C405.19,62.51 403.5,63.45 403.49,63.45L402.9,63.8L417.64,63.8L417.04,63.45C417.04,63.45 415.39,62.51 414.6,62.01C413.81,61.51 413.54,61.16 413.54,59.51L413.54,49.2L429.3,64.63L429.3,42.21C429.3,40.54 429.58,40.21 430.38,39.65C431.18,39.09 432.86,38.22 432.87,38.22L433.54,37.87Z" style="fill:rgb(192,192,192);fill-rule:nonzero;stroke:rgb(0,47,255);stroke-width:0.7px;"/>
                        <path d="M374.51,62.06C374.51,62.06 374.13,61.54 373.91,61.19C373.69,60.84 373.59,60.62 373.59,59.55L373.59,52.55C373.59,51.49 373.69,51.29 373.89,50.97C374.09,50.65 374.49,50.11 374.49,50.11L374.62,49.93L374.43,49.84C374.102,49.673 373.746,49.564 373.38,49.52L362.38,49.52L362.93,49.86L365.29,51.31C366,51.76 366.36,52.31 366.36,53.81L366.36,57.62C365.495,57.886 364.594,58.014 363.69,58C359.24,58 356.99,55.6 356.99,50.86C356.99,46.35 359.46,43.76 363.76,43.76C367.043,43.753 370.227,44.892 372.76,46.98L372.76,46.8L371.97,39.29L371.91,38.74L371.37,38.61L370.84,38.49C369.333,38.11 367.803,37.826 366.26,37.64C365.508,37.533 364.749,37.483 363.99,37.49L363.56,37.49C355.44,37.49 349.56,43.17 349.56,50.99C349.56,58.81 355.49,64.29 363.65,64.29C365.634,64.247 367.61,64.039 369.56,63.67L370.33,63.49L370.5,63.49C371.5,63.26 372.5,63.01 373.5,62.7L374.76,62.3L374.51,62.06Z" style="fill:rgb(192,192,192);fill-rule:nonzero;stroke:rgb(0,47,255);stroke-width:0.7px;"/>
                    </g>
                </g>
            </g>
        </g>
    </g>
</svg>
